HIERARCHY
ROOT Hips
{
	OFFSET 0.000000 100.481300 0.000000
	CHANNELS 6 Xposition Yposition Zposition Xrotation Yrotation Zrotation 
	JOINT Spine
	{
		OFFSET -0.279200 12.230698 -2.892100
		CHANNELS 3 Xrotation Yrotation Zrotation
		JOINT Spine1
		{
			OFFSET -0.232667 10.192268 -1.242267
			CHANNELS 3 Xrotation Yrotation Zrotation
			JOINT Spine1_split
			{
				OFFSET -0.232667 10.192268 -1.242267
				CHANNELS 3 Xrotation Yrotation Zrotation
				JOINT Spine2
				{
					OFFSET -0.232667 10.192268 -1.242267
					CHANNELS 3 Xrotation Yrotation Zrotation
					JOINT Neck
					{
						OFFSET -0.418800 17.814194 8.416900
						CHANNELS 3 Xrotation Yrotation Zrotation
						JOINT Head
						{
							OFFSET 0.000000 7.031097 3.806800
							CHANNELS 3 Xrotation Yrotation Zrotation
							JOINT HeadTop_End
							{
								OFFSET 0.000000 24.646606 12.978600
								CHANNELS 3 Xrotation Yrotation Zrotation
								End Site
								{
									OFFSET 0.000000 0.000000 0.000000
								}
							}
						}
					}
					JOINT LeftShoulder
					{
						OFFSET 8.476499 7.247704 -3.868750
						CHANNELS 3 Xrotation Yrotation Zrotation
						JOINT LeftShoulder_split
						{
							OFFSET 8.476499 7.247704 -3.868750
							CHANNELS 3 Xrotation Yrotation Zrotation
							JOINT LeftArm
							{
								OFFSET 9.308998 -2.777710 0.208600
								CHANNELS 3 Xrotation Yrotation Zrotation
								JOINT LeftForeArm
								{
									OFFSET 29.972298 0.000000 0.000000
									CHANNELS 3 Xrotation Yrotation Zrotation
									JOINT LeftHand
									{
										OFFSET 26.026505 0.000000 0.000000
										CHANNELS 3 Xrotation Yrotation Zrotation
										JOINT LeftHandThumb1
										{
											OFFSET 12.240501 -7.147949 9.207150
											CHANNELS 3 Xrotation Yrotation Zrotation
											JOINT LeftHandThumb2
											{
												OFFSET 4.138618 -2.389435 2.389433
												CHANNELS 3 Xrotation Yrotation Zrotation
												JOINT LeftHandThumb3
												{
													OFFSET 2.726913 -1.574387 1.574386
													CHANNELS 3 Xrotation Yrotation Zrotation
													JOINT LeftHandThumb4
													{
														OFFSET 3.941010 -2.275345 2.275342
														CHANNELS 3 Xrotation Yrotation Zrotation
														End Site
														{
															OFFSET 0.000000 0.000000 0.000000
														}
													}
												}
											}
										}
										JOINT LeftHandIndex1
										{
											OFFSET 24.424698 -1.985611 5.953459
											CHANNELS 3 Xrotation Yrotation Zrotation
											JOINT LeftHandIndex2
											{
												OFFSET 6.426697 0.000000 0.000000
												CHANNELS 3 Xrotation Yrotation Zrotation
												JOINT LeftHandIndex3
												{
													OFFSET 5.337898 0.000000 0.000000
													CHANNELS 3 Xrotation Yrotation Zrotation
													JOINT LeftHandIndex4
													{
														OFFSET 4.409401 0.000000 0.000000
														CHANNELS 3 Xrotation Yrotation Zrotation
														End Site
														{
															OFFSET 0.000000 0.000000 0.000000
														}
													}
												}
											}
										}
										JOINT LeftHandMiddle1
										{
											OFFSET 23.810104 0.000000 0.000000
											CHANNELS 3 Xrotation Yrotation Zrotation
											JOINT LeftHandMiddle2
											{
												OFFSET 7.176498 0.000000 0.000000
												CHANNELS 3 Xrotation Yrotation Zrotation
												JOINT LeftHandMiddle3
												{
													OFFSET 6.774902 0.000000 0.000000
													CHANNELS 3 Xrotation Yrotation Zrotation
													JOINT LeftHandMiddle4
													{
														OFFSET 5.403328 0.000000 0.000000
														CHANNELS 3 Xrotation Yrotation Zrotation
														End Site
														{
															OFFSET 0.000000 0.000000 0.000000
														}
													}
												}
											}
										}
										JOINT LeftHandRing1
										{
											OFFSET 22.908401 -0.839279 -6.020567
											CHANNELS 3 Xrotation Yrotation Zrotation
											JOINT LeftHandRing2
											{
												OFFSET 6.337502 0.000000 0.000000
												CHANNELS 3 Xrotation Yrotation Zrotation
												JOINT LeftHandRing3
												{
													OFFSET 5.779297 0.000000 0.000000
													CHANNELS 3 Xrotation Yrotation Zrotation
													JOINT LeftHandRing4
													{
														OFFSET 4.965698 0.000000 0.000000
														CHANNELS 3 Xrotation Yrotation Zrotation
														End Site
														{
															OFFSET 0.000000 0.000000 0.000000
														}
													}
												}
											}
										}
										JOINT LeftHandPinky1
										{
											OFFSET 20.037003 -1.530319 -10.950146
											CHANNELS 3 Xrotation Yrotation Zrotation
											JOINT LeftHandPinky2
											{
												OFFSET 5.254700 0.000000 0.000000
												CHANNELS 3 Xrotation Yrotation Zrotation
												JOINT LeftHandPinky3
												{
													OFFSET 4.810204 0.000000 0.000000
													CHANNELS 3 Xrotation Yrotation Zrotation
													JOINT LeftHandPinky4
													{
														OFFSET 3.647202 0.000000 0.000000
														CHANNELS 3 Xrotation Yrotation Zrotation
														End Site
														{
															OFFSET 0.000000 0.000000 0.000000
														}
													}
												}
											}
										}
									}
								}
							}
						}
					}
					JOINT RightShoulder
					{
						OFFSET -7.570500 7.247704 -3.868750
						CHANNELS 3 Xrotation Yrotation Zrotation
						JOINT RightShoulder_split
						{
							OFFSET -7.570500 7.247704 -3.868750
							CHANNELS 3 Xrotation Yrotation Zrotation
							JOINT RightArm
							{
								OFFSET -9.308998 -2.777710 0.208500
								CHANNELS 3 Xrotation Yrotation Zrotation
								JOINT RightForeArm
								{
									OFFSET -29.972300 0.000000 0.000000
									CHANNELS 3 Xrotation Yrotation Zrotation
									JOINT RightHand
									{
										OFFSET -26.026505 0.000000 0.000000
										CHANNELS 3 Xrotation Yrotation Zrotation
										JOINT RightHandThumb1
										{
											OFFSET -12.240601 -7.148026 9.207092
											CHANNELS 3 Xrotation Yrotation Zrotation
											JOINT RightHandThumb2
											{
												OFFSET -4.138618 -2.389435 2.389433
												CHANNELS 3 Xrotation Yrotation Zrotation
												JOINT RightHandThumb3
												{
													OFFSET -2.726974 -1.574417 1.574421
													CHANNELS 3 Xrotation Yrotation Zrotation
													JOINT RightHandThumb4
													{
														OFFSET -3.941010 -2.275345 2.275343
														CHANNELS 3 Xrotation Yrotation Zrotation
														End Site
														{
															OFFSET 0.000000 0.000000 0.000000
														}
													}
												}
											}
										}
										JOINT RightHandIndex1
										{
											OFFSET -24.424698 -1.985657 5.953444
											CHANNELS 3 Xrotation Yrotation Zrotation
											JOINT RightHandIndex2
											{
												OFFSET -6.426697 0.000000 0.000000
												CHANNELS 3 Xrotation Yrotation Zrotation
												JOINT RightHandIndex3
												{
													OFFSET -5.337898 0.000000 0.000000
													CHANNELS 3 Xrotation Yrotation Zrotation
													JOINT RightHandIndex4
													{
														OFFSET -4.409401 0.000000 0.000000
														CHANNELS 3 Xrotation Yrotation Zrotation
														End Site
														{
															OFFSET 0.000000 0.000000 0.000000
														}
													}
												}
											}
										}
										JOINT RightHandMiddle1
										{
											OFFSET -23.810097 0.000000 0.000000
											CHANNELS 3 Xrotation Yrotation Zrotation
											JOINT RightHandMiddle2
											{
												OFFSET -7.176498 0.000000 0.000000
												CHANNELS 3 Xrotation Yrotation Zrotation
												JOINT RightHandMiddle3
												{
													OFFSET -6.774902 0.000000 0.000000
													CHANNELS 3 Xrotation Yrotation Zrotation
													JOINT RightHandMiddle4
													{
														OFFSET -5.403328 0.000000 0.000000
														CHANNELS 3 Xrotation Yrotation Zrotation
														End Site
														{
															OFFSET 0.000000 0.000000 0.000000
														}
													}
												}
											}
										}
										JOINT RightHandRing1
										{
											OFFSET -22.908302 -0.839325 -6.020576
											CHANNELS 3 Xrotation Yrotation Zrotation
											JOINT RightHandRing2
											{
												OFFSET -6.337502 0.000000 0.000000
												CHANNELS 3 Xrotation Yrotation Zrotation
												JOINT RightHandRing3
												{
													OFFSET -5.779297 0.000000 0.000000
													CHANNELS 3 Xrotation Yrotation Zrotation
													JOINT RightHandRing4
													{
														OFFSET -4.965698 0.000000 0.000000
														CHANNELS 3 Xrotation Yrotation Zrotation
														End Site
														{
															OFFSET 0.000000 0.000000 0.000000
														}
													}
												}
											}
										}
										JOINT RightHandPinky1
										{
											OFFSET -20.037003 -1.530334 -10.950259
											CHANNELS 3 Xrotation Yrotation Zrotation
											JOINT RightHandPinky2
											{
												OFFSET -5.254700 0.000000 0.000000
												CHANNELS 3 Xrotation Yrotation Zrotation
												JOINT RightHandPinky3
												{
													OFFSET -4.810204 0.000000 0.000000
													CHANNELS 3 Xrotation Yrotation Zrotation
													JOINT RightHandPinky4
													{
														OFFSET -3.647202 0.000000 0.000000
														CHANNELS 3 Xrotation Yrotation Zrotation
														End Site
														{
															OFFSET 0.000000 0.000000 0.000000
														}
													}
												}
											}
										}
									}
								}
							}
						}
					}
				}
			}
		}
	}
	JOINT LeftUpLeg
	{
		OFFSET 15.427100 -6.655098 0.678600
		CHANNELS 3 Xrotation Yrotation Zrotation
		JOINT LeftLeg
		{
			OFFSET 4.081073 -39.591068 13.024000
			CHANNELS 3 Xrotation Yrotation Zrotation
			JOINT LeftFoot
			{
				OFFSET -4.081074 -37.707932 -15.979700
				CHANNELS 3 Xrotation Yrotation Zrotation
				JOINT LeftToeBase
				{
					OFFSET 5.346399 -15.068900 20.645000
					CHANNELS 3 Xrotation Yrotation Zrotation
					JOINT LeftToe_End
					{
						OFFSET 2.754700 0.931300 11.300900
						CHANNELS 3 Xrotation Yrotation Zrotation
						End Site
						{
							OFFSET 0.000000 0.000000 0.000000
						}
					}
				}
			}
		}
	}
	JOINT RightUpLeg
	{
		OFFSET -15.569500 -6.655098 0.678600
		CHANNELS 3 Xrotation Yrotation Zrotation
		JOINT RightLeg
		{
			OFFSET -4.081825 -39.591045 13.023800
			CHANNELS 3 Xrotation Yrotation Zrotation
			JOINT RightFoot
			{
				OFFSET 4.081824 -37.707954 -15.979600
				CHANNELS 3 Xrotation Yrotation Zrotation
				JOINT RightToeBase
				{
					OFFSET -5.346400 -15.068900 20.645000
					CHANNELS 3 Xrotation Yrotation Zrotation
					JOINT RightToe_End
					{
						OFFSET -2.754700 0.931300 11.300900
						CHANNELS 3 Xrotation Yrotation Zrotation
						End Site
						{
							OFFSET 0.000000 0.000000 0.000000
						}
					}
				}
			}
		}
	}
}
MOTION
Frames: 5
Frame Time: 0.016667
1.211260 85.352943 -0.730319 -6.107847 -43.249041 -4.102748 5.829216 4.866195 -1.194420 11.835727 9.038093 -3.084132 0.000000 0.000000 0.000000 11.835730 9.038085 -3.084132 -4.303058 -1.272935 0.206307 -6.271931 20.437784 -0.377164 -0.000001 0.000000 -0.000000 1.387435 -0.696992 -7.876277 0.000000 0.000000 0.000000 -14.260094 2.393802 -63.277133 9.865062 -47.524873 5.927955 16.172824 0.916322 18.795306 9.163595 4.814117 -5.499037 -0.335373 0.032569 0.783662 -0.000003 -0.000005 -0.000016 -0.000002 0.000000 0.000003 -0.902039 -6.980918 -3.808440 0.026599 0.806442 -16.418897 -0.000000 -0.000000 -0.000000 0.000000 0.000001 -0.000003 1.947543 9.681373 -14.539572 -0.461212 -1.564445 -21.881061 0.000005 0.000002 0.000007 0.000002 -0.000000 -0.000000 2.605815 14.896567 -31.345213 -0.570654 -2.704766 -32.012038 0.000005 0.000002 0.000001 0.000000 -0.000000 -0.000000 4.171019 18.494902 -34.987422 -0.706798 -5.788623 -39.372892 -0.000006 -0.000011 -0.000015 0.000002 -0.000003 0.000001 1.410924 9.461507 9.792738 0.000000 0.000000 0.000000 1.220053 -24.270710 60.532934 -6.660698 41.858398 8.043833 6.225261 12.322328 11.673288 -8.895779 -4.903202 -0.383702 7.903392 -19.189678 -2.856935 0.000005 -0.000000 0.000003 -0.000001 0.000000 -0.000002 -1.096329 -1.217224 4.525381 0.141701 -1.115733 16.942578 -0.000001 0.000003 0.000002 0.000000 0.000000 0.000001 -0.670809 -2.905548 12.731484 -0.652520 1.804271 30.579508 -0.000001 -0.000002 0.000007 -0.000000 -0.000002 -0.000001 2.418894 -7.406059 21.762665 -0.995466 3.769844 37.430639 0.000001 -0.000002 -0.000002 0.000000 0.000000 -0.000002 3.482208 -10.050678 24.322240 -1.467009 7.868261 41.092870 -0.000000 0.000001 -0.000000 0.000001 0.000000 -0.000002 -29.877727 5.210741 13.319275 32.838050 -12.881433 0.309466 -0.267932 0.092751 -8.727521 -2.321970 -3.217387 0.803264 0.000000 -0.000001 0.000000 1.358013 -13.669593 -18.979108 31.289124 -6.247299 0.667295 -23.450283 -7.002165 20.508661 -1.785096 -0.356721 0.333203 0.000000 -0.000000 -0.000000 
1.216601 85.345970 -0.722883 -6.080914 -43.326653 -4.077966 5.824308 4.870803 -1.204388 11.826960 9.047792 -3.104679 0.000000 0.000000 0.000000 11.826961 9.047796 -3.104675 -4.348294 -1.296196 0.185085 -6.207252 20.521773 -0.394174 -0.000001 0.000000 0.000000 1.387393 -0.696822 -7.876269 0.000000 0.000000 0.000000 -14.262261 2.393787 -63.250680 9.848930 -47.561032 5.920507 16.146016 0.904696 18.680743 9.281177 4.985900 -5.486671 -0.249601 0.224363 0.816308 -0.000005 -0.000004 -0.000017 -0.000002 0.000001 0.000000 -0.895029 -6.979109 -3.983064 0.019739 0.784207 -16.611462 -0.000002 -0.000002 0.000002 0.000003 -0.000000 -0.000000 1.943552 9.666289 -14.728985 -0.467820 -1.583379 -22.065392 -0.000002 0.000003 0.000006 0.000001 -0.000000 -0.000000 2.597689 14.883723 -31.520292 -0.579611 -2.719021 -32.210482 0.000004 0.000002 0.000000 -0.000001 -0.000001 -0.000001 4.160754 18.488381 -35.170498 -0.709426 -5.791669 -39.559260 -0.000002 -0.000009 -0.000016 -0.000001 -0.000002 0.000001 1.398781 9.503313 9.802038 0.000000 0.000000 0.000000 1.235468 -24.253394 60.503592 -6.635576 41.828625 8.061778 6.205728 12.287851 11.583851 -8.744222 -4.912972 -0.267384 7.890849 -19.193882 -2.875782 0.000005 -0.000000 0.000003 -0.000001 0.000000 0.000001 -1.094940 -1.224541 4.426567 0.143564 -1.121788 16.879889 -0.000001 0.000000 0.000000 -0.000001 -0.000001 -0.000000 -0.667438 -2.920392 12.633024 -0.649445 1.799059 30.481871 -0.000001 -0.000004 0.000004 -0.000001 0.000000 -0.000001 2.423715 -7.418811 21.676029 -0.988828 3.761196 37.329368 0.000001 -0.000002 0.000002 0.000001 -0.000000 0.000002 3.489128 -10.065738 24.227639 -1.459267 7.863624 40.993627 0.000000 0.000000 -0.000004 0.000001 0.000002 -0.000001 -29.870425 5.206438 13.323998 32.872901 -12.802746 0.332468 -0.321310 0.100733 -8.757523 -2.321970 -3.217354 0.803264 -0.000000 0.000001 0.000000 1.257410 -13.668009 -18.982219 31.327998 -6.181450 0.605138 -23.454272 -6.996004 20.502920 -1.785095 -0.356709 0.333188 0.000000 -0.000000 0.000000 
1.218160 85.360367 -0.723950 -6.050602 -43.392151 -4.042564 5.820668 4.866923 -1.213983 11.819974 9.041240 -3.121164 0.000000 0.000000 0.000000 11.819971 9.041243 -3.121163 -4.387860 -1.297859 0.163178 -6.136319 20.653468 -0.443796 0.000000 0.000000 0.000000 1.389714 -0.709916 -7.876829 0.000000 0.000000 0.000000 -14.244239 2.394023 -63.227252 9.904602 -47.573138 5.947290 16.178295 0.914642 18.773782 9.414845 5.159728 -5.469226 -0.170201 0.412569 0.856146 -0.000002 0.000001 -0.000015 -0.000002 -0.000001 0.000002 -0.885488 -6.977777 -4.153075 0.012757 0.761526 -16.807784 -0.000001 0.000002 -0.000002 0.000000 0.000001 0.000000 1.939547 9.651377 -14.916314 -0.474093 -1.601145 -22.238816 0.000004 0.000004 0.000007 0.000003 0.000001 -0.000002 2.589840 14.871383 -31.688837 -0.588523 -2.733079 -32.406034 0.000009 -0.000001 0.000002 -0.000002 -0.000001 -0.000002 4.151062 18.482348 -35.342653 -0.711826 -5.794509 -39.734554 0.000001 -0.000012 -0.000015 -0.000001 -0.000003 -0.000000 1.393259 9.523884 9.813705 0.000000 0.000000 0.000000 1.197311 -24.211979 60.500682 -6.605038 41.712696 8.037639 6.258860 12.244929 11.498274 -8.538361 -4.895343 -0.106995 7.856125 -19.205493 -2.927869 0.000005 -0.000000 0.000002 -0.000001 -0.000001 -0.000001 -1.093473 -1.232165 4.323042 0.143914 -1.122950 16.867308 -0.000000 -0.000000 0.000001 -0.000000 -0.000004 -0.000000 -0.663459 -2.937936 12.524939 -0.646096 1.793340 30.374538 -0.000001 -0.000002 0.000006 0.000000 -0.000000 -0.000000 2.430978 -7.439400 21.599206 -0.980319 3.750007 37.198931 0.000001 -0.000001 -0.000001 0.000001 -0.000001 -0.000001 3.495809 -10.078046 24.121564 -1.450819 7.858606 40.884648 -0.000003 0.000000 -0.000001 -0.000001 0.000001 0.000001 -29.845977 5.202857 13.316150 32.845980 -12.728747 0.357898 -0.337004 0.105491 -8.805639 -2.321970 -3.217355 0.803259 -0.000000 0.000003 0.000000 1.181861 -13.657750 -18.979525 31.327066 -6.150048 0.543491 -23.435392 -6.988227 20.505883 -1.785096 -0.356749 0.333201 0.000000 -0.000000 -0.000000 
1.222268 85.362419 -0.719535 -6.000080 -43.464015 -3.996972 5.815292 4.859004 -1.220238 11.809249 9.026348 -3.132224 0.000000 0.000000 0.000000 11.809254 9.026349 -3.132226 -4.418638 -1.266540 0.119660 -6.071691 20.811248 -0.506489 -0.000000 -0.000000 -0.000000 1.389220 -0.712573 -7.883957 0.000000 0.000000 0.000000 -14.233990 2.393102 -63.219213 9.867900 -47.596293 5.922667 16.138909 0.892865 18.667028 9.527663 5.320410 -5.445002 -0.082362 0.613088 0.892578 -0.000004 -0.000001 -0.000014 0.000001 0.000001 0.000000 -0.878610 -6.976105 -4.318738 0.006554 0.741419 -16.982087 -0.000004 -0.000002 -0.000001 -0.000003 0.000003 -0.000002 1.935618 9.636931 -15.098096 -0.480063 -1.617958 -22.403384 0.000004 0.000005 0.000007 0.000003 -0.000001 0.000001 2.581131 14.857796 -31.874727 -0.595910 -2.743325 -32.579507 0.000007 0.000001 0.000002 0.000001 0.000001 0.000002 4.139514 18.469562 -35.515652 -0.714232 -5.797194 -39.900087 -0.000005 -0.000010 -0.000013 -0.000003 -0.000002 0.000001 1.393272 9.550940 9.804900 0.000000 0.000000 0.000000 1.182779 -24.200766 60.514342 -6.580799 41.627257 8.001243 6.320973 12.185654 11.442712 -8.394744 -4.917746 0.003174 7.849067 -19.207858 -2.938459 0.000008 -0.000002 0.000004 -0.000002 -0.000001 -0.000001 -1.091894 -1.240396 4.212023 0.146039 -1.129843 16.796152 -0.000001 0.000001 0.000001 -0.000001 0.000001 0.000001 -0.661696 -2.945911 12.408748 -0.642766 1.787651 30.268103 -0.000003 -0.000001 0.000006 0.000000 -0.000001 -0.000001 2.436786 -7.454679 21.485142 -0.971959 3.739007 37.070650 0.000001 0.000001 0.000001 0.000000 0.000001 0.000002 3.502969 -10.091378 24.007355 -1.441688 7.853022 40.767125 -0.000001 -0.000003 -0.000003 0.000000 0.000000 -0.000002 -29.853845 5.198972 13.321346 32.847776 -12.661966 0.368059 -0.366834 0.112053 -8.840135 -2.321961 -3.217363 0.803258 -0.000000 0.000002 0.000000 1.080781 -13.640415 -18.984099 31.348526 -6.110706 0.485812 -23.425882 -6.985909 20.512093 -1.790352 -0.360815 0.338232 0.000000 0.000002 -0.000000 
1.224961 85.371582 -0.720921 -5.955017 -43.528376 -3.952377 5.812828 4.844155 -1.226959 11.803857 8.997833 -3.142078 0.000000 0.000000 0.000000 11.803858 8.997838 -3.142082 -4.445935 -1.219817 0.079432 -6.011193 21.010847 -0.587840 0.000000 0.000000 0.000000 1.389183 -0.727277 -7.903649 0.000000 0.000000 0.000000 -14.193241 2.416424 -63.198190 9.925523 -47.632674 5.956984 16.172618 0.897516 18.734145 9.612847 5.471846 -5.407996 0.016389 0.828482 0.923196 -0.000000 -0.000003 -0.000015 -0.000000 0.000002 -0.000001 -0.875222 -6.973890 -4.482514 0.001032 0.723411 -17.138053 -0.000002 -0.000002 0.000001 -0.000002 0.000001 -0.000000 1.931762 9.622902 -15.274514 -0.485783 -1.634051 -22.559162 0.000003 0.000004 0.000006 0.000001 0.000002 -0.000001 2.572678 14.846058 -32.076351 -0.602614 -2.753008 -32.732326 0.000007 0.000001 0.000003 0.000002 -0.000001 0.000001 4.126621 18.452185 -35.689583 -0.716416 -5.799716 -40.056037 -0.000003 -0.000011 -0.000017 0.000001 -0.000003 -0.000001 1.394624 9.568489 9.789854 0.000000 0.000000 0.000000 1.143548 -24.160806 60.514035 -6.548435 41.493030 7.985909 6.402226 12.095235 11.345553 -8.318017 -4.994424 0.056191 7.878566 -19.196911 -2.904272 0.000005 -0.000002 0.000003 -0.000004 -0.000001 -0.000001 -1.090328 -1.248977 4.100313 0.149842 -1.142144 16.668240 -0.000000 0.000000 0.000001 -0.000001 0.000000 0.000000 -0.662048 -2.944664 12.279125 -0.639595 1.782196 30.166302 -0.000003 -0.000002 0.000005 -0.000001 -0.000002 -0.000000 2.436544 -7.463098 21.336548 -0.964581 3.730778 36.948093 0.000000 0.000000 -0.000001 0.000000 0.000000 -0.000001 3.510586 -10.105610 23.885493 -1.435364 7.845761 40.642330 0.000002 0.000001 -0.000004 0.000001 0.000001 0.000001 -29.848859 5.190401 13.314711 32.832521 -12.587662 0.391875 -0.387877 0.113606 -8.886112 -2.321960 -3.217403 0.803256 -0.000000 0.000005 0.000000 0.992861 -13.617901 -18.981044 31.357357 -6.083488 0.424796 -23.409626 -6.984789 20.523796 -1.795659 -0.370157 0.345639 0.000000 -0.000000 -0.000000 
